<svg xmlns="http://www.w3.org/2000/svg" xmlns:xlink="http://www.w3.org/1999/xlink" version="1.1" x="0px" y="0px" viewBox="0 0 100 125" enable-background="new 0 0 100 100" xml:space="preserve"><path d="M91.75,49.65c-1.13-1.3-6.62-5.01-6.78-5.97c1.971,0.34,2.521,0.44,2.681,0.46c-1.261-0.49-21.73-8.29-47.21-10.63  c-6.29-6.45-7.15-6.52-7.1-6.45c2.75,3.49,3.61,5.87,3.61,5.87c-3.49-0.87-7.64,2.36-17.32-7.16c4.68,5.97,6.29,6.61,6.29,6.61  s-10.69,6.51-17.91,2.91c8.71,4.35,8.71,4.35,8.71,4.35l11.73,12.04c-0.58-0.78-6.53-8.93-2.69-11.229  c4.03-2.42,3.55-3.23,10.16-2.91c0.05,0.92,1.42,21.36,21.18,22.71c-4.239,0.28-9.29,0.6-15.31,0.99c-1.57-1.09-7.52-4.61-7.89-4.83  l6.6,5.31c0,0,0,0-1.62,2.511c2.91-1.521,7.91-1.7,7.91-1.7s-1.78,3.06,0.8,0.97c2.88-2.2,23.93-4.05,30.101-4.56  C75.83,59.05,71.89,59.3,63.57,59.84c11.489-2.57,11.88-14.8,11.87-16.85c2.119,0.32,3.399,0.52,3.399,0.52l4.521,5.01l-1.45-3.91  C81.91,44.61,89.17,49.48,91.75,49.65z M54.77,40.2c2.2,0.33,4.36,0.69,6.37,1.05c0.07,0.48,0.11,1.04,0.11,1.71  c0,4.37-1.79,7.42-3.39,7.42c-1.61,0-3.4-3.05-3.4-7.42C54.46,41.9,54.57,40.98,54.77,40.2z M71.39,44.21  c-0.149,2.07-0.8,6.12-3.479,8.91c-2.07,2.149-4.99,3.2-8.93,3.2c-0.36,0-0.721-0.011-1.091-0.03c-6.99-0.33-12.11-3.48-15.2-9.37  c-0.46-0.87-0.84-1.74-1.15-2.58c-0.87-2.29-1.28-4.38-1.47-5.67c2.41,0.08,5.24,0.32,8.21,0.67c1.8,0.2,3.661,0.45,5.5,0.72  c-0.21,0.82-0.32,1.78-0.32,2.9c0,4.65,1.97,8.42,4.4,8.42c2.42,0,4.39-3.77,4.39-8.42c0-0.56-0.03-1.07-0.09-1.52  c0.359,0.06,0.71,0.13,1.06,0.2c2.94,0.56,5.41,1.11,6.96,1.54c0.65,0.18,1.03,0.38,1.24,0.53C71.41,43.86,71.4,44.03,71.39,44.21z"/><text x="0" y="115" fill="#000000" font-size="5px" font-weight="bold" font-family="'Helvetica Neue', Helvetica, Arial-Unicode, Arial, Sans-serif">Created by Alberto Venegas</text><text x="0" y="120" fill="#000000" font-size="5px" font-weight="bold" font-family="'Helvetica Neue', Helvetica, Arial-Unicode, Arial, Sans-serif">from the Noun Project</text></svg>