<svg xmlns="http://www.w3.org/2000/svg" viewBox="0 0 90 56" width="90" height="56">
	<style>
		tspan { white-space:pre }
		.shp0 { fill: rgb(253, 149, 31)} 
	</style>
	<path id="Layer" fill-rule="evenodd" class="shp0" d="M76.91 23.61L78.36 27.52L73.84 22.51C73.84 22.51 72.56 22.31 70.44 21.99C70.45 24.04 70.06 36.27 58.57 38.84C66.89 38.3 70.83 38.05 72.69 37.94C66.52 38.45 45.47 40.3 42.59 42.5C40.01 44.59 41.79 41.53 41.79 41.53C41.79 41.53 36.79 41.71 33.88 43.23C35.5 40.72 35.5 40.72 35.5 40.72L28.9 35.41C29.27 35.63 35.22 39.15 36.79 40.24C42.81 39.85 47.86 39.53 52.1 39.25C32.34 37.9 30.97 17.46 30.92 16.54C24.31 16.22 24.79 17.03 20.76 19.45C16.92 21.75 22.87 29.9 23.45 30.68L11.72 18.64C11.72 18.64 11.72 18.64 3.01 14.29C10.23 17.89 20.92 11.38 20.92 11.38C20.92 11.38 19.31 10.74 14.63 4.77C24.31 14.29 28.46 11.06 31.95 11.93C31.95 11.93 31.09 9.55 28.34 6.06C28.29 5.99 29.15 6.06 35.44 12.51C60.92 14.85 81.39 22.65 82.65 23.14C82.49 23.12 81.94 23.02 79.97 22.68C80.13 23.64 85.62 27.35 86.75 28.65C84.17 28.48 76.91 23.61 76.91 23.61ZM66.42 22.71C66.21 22.56 65.83 22.36 65.18 22.18C63.63 21.75 61.16 21.2 58.22 20.64C57.87 20.57 57.52 20.5 57.16 20.44C57.22 20.89 57.25 21.4 57.25 21.96C57.25 26.61 55.28 30.38 52.86 30.38C50.43 30.38 48.46 26.61 48.46 21.96C48.46 20.84 48.57 19.88 48.78 19.06C46.94 18.79 45.08 18.54 43.28 18.34C40.31 17.99 37.48 17.75 35.07 17.67C35.26 18.96 35.67 21.05 36.54 23.34C36.85 24.18 37.23 25.05 37.69 25.92C40.78 31.81 45.9 34.96 52.89 35.29C53.26 35.31 53.62 35.32 53.98 35.32C57.92 35.32 60.84 34.27 62.91 32.12C65.59 29.33 66.24 25.28 66.39 23.21C66.4 23.03 66.41 22.86 66.42 22.71ZM49.46 21.96C49.46 26.33 51.25 29.38 52.86 29.38C54.46 29.38 56.25 26.33 56.25 21.96C56.25 21.29 56.21 20.73 56.14 20.25C54.13 19.89 51.97 19.53 49.77 19.2C49.57 19.98 49.46 20.9 49.46 21.96Z" />
	<text id="Created by Alberto Venegas" style="transform: matrix(1,0,0,1,-5,94)" >
		<tspan x="0" y="0" class="txt1">Created by Alberto Venegas</tspan>
	</text>
	<text id="from the Noun Project" style="transform: matrix(1,0,0,1,-86,85)" >
		<tspan x="0" y="0" class="txt1">from the Noun Project</tspan>
	</text>
</svg>