<svg xmlns="http://www.w3.org/2000/svg" viewBox="0 0 90 20" width="90" height="42">
	<style>
		tspan { white-space:pre }
		.shp0 { fill: rgb(253, 149, 31) } 
	</style>
	<path id="Layer" fill-rule="evenodd" class="shp0" d="M76.91 19.61L78.36 23.52L73.84 18.51C73.84 18.51 72.56 18.31 70.44 17.99C70.45 20.04 70.06 32.27 58.57 34.84C66.89 34.3 70.83 34.05 72.69 33.94C66.52 34.45 45.47 36.3 42.59 38.5C40.01 40.59 41.79 37.53 41.79 37.53C41.79 37.53 36.79 37.71 33.88 39.23C35.5 36.72 35.5 36.72 35.5 36.72L28.9 31.41C29.27 31.63 35.22 35.15 36.79 36.24C42.81 35.85 47.86 35.53 52.1 35.25C32.34 33.9 30.97 13.46 30.92 12.54C24.31 12.22 24.79 13.03 20.76 15.45C16.92 17.75 22.87 25.9 23.45 26.68L11.72 14.64C11.72 14.64 11.72 14.64 3.01 10.29C10.23 13.89 20.92 7.38 20.92 7.38C20.92 7.38 19.31 6.74 14.63 0.77C24.31 10.29 28.46 7.06 31.95 7.93C31.95 7.93 31.09 5.55 28.34 2.06C28.29 1.99 29.15 2.06 35.44 8.51C60.92 10.85 81.39 18.65 82.65 19.14C82.49 19.12 81.94 19.02 79.97 18.68C80.13 19.64 85.62 23.35 86.75 24.65C84.17 24.48 76.91 19.61 76.91 19.61ZM66.42 18.71C66.21 18.56 65.83 18.36 65.18 18.18C63.63 17.75 61.16 17.2 58.22 16.64C57.87 16.57 57.52 16.5 57.16 16.44C57.22 16.89 57.25 17.4 57.25 17.96C57.25 22.61 55.28 26.38 52.86 26.38C50.43 26.38 48.46 22.61 48.46 17.96C48.46 16.84 48.57 15.88 48.78 15.06C46.94 14.79 45.08 14.54 43.28 14.34C40.31 13.99 37.48 13.75 35.07 13.67C35.26 14.96 35.67 17.05 36.54 19.34C36.85 20.18 37.23 21.05 37.69 21.92C40.78 27.81 45.9 30.96 52.89 31.29C53.26 31.31 53.62 31.32 53.98 31.32C57.92 31.32 60.84 30.27 62.91 28.12C65.59 25.33 66.24 21.28 66.39 19.21C66.4 19.03 66.41 18.86 66.42 18.71ZM49.46 17.96C49.46 22.33 51.25 25.38 52.86 25.38C54.46 25.38 56.25 22.33 56.25 17.96C56.25 17.29 56.21 16.73 56.14 16.25C54.13 15.89 51.97 15.53 49.77 15.2C49.57 15.98 49.46 16.9 49.46 17.96Z" />
	<text id="Created by Alberto Venegas" style="transform: matrix(1,0,0,1,-5,90)" >
		<tspan x="0" y="0" class="txt1">Created by Alberto Venegas</tspan>
	</text>
	<text id="from the Noun Project" style="transform: matrix(1,0,0,1,-86,81)" >
		<tspan x="0" y="0" class="txt1">from the Noun Project</tspan>
	</text>
</svg>